<?xml version="1.0" encoding="UTF-8"?>
<svg width="756px" height="484px" viewBox="0 0 756 484" version="1.1" xmlns="http://www.w3.org/2000/svg" xmlns:xlink="http://www.w3.org/1999/xlink" style="background: #FFFFFF;">
    <!-- Generator: Sketch 46.2 (44496) - http://www.bohemiancoding.com/sketch -->
    <title>xp-values</title>
    <desc>Created with Sketch.</desc>
    <defs></defs>
    <g id="Page-1" stroke="none" stroke-width="1" fill="none" fill-rule="evenodd">
        <g id="Arrow" transform="translate(91.000000, 36.000000)">
            <g transform="translate(506.146482, 303.620426) rotate(-17.000000) translate(-506.146482, -303.620426) translate(439.146482, 238.120426)">
                <path d="M20.4059266,33.7049934 C85.5821311,8.31301472 119.997755,32.6022731 123.652799,106.572769" id="Line" stroke="#000000" stroke-width="5" stroke-linecap="square" transform="translate(72.029363, 65.272210) rotate(119.000000) translate(-72.029363, -65.272210) "></path>
                <polygon id="Arrowhead" fill="#000000" transform="translate(11.000000, 91.000000) rotate(24.851152) translate(-11.000000, -91.000000) " points="19 99 3 91 19 83"></polygon>
            </g>
            <g transform="translate(449.000000, 30.000000)">
                <path d="M0,3 C61.6666667,-9.66666667 94.3333333,21 98,95" id="Line" stroke="#000000" stroke-width="5" stroke-linecap="square"></path>
                <polygon id="Arrowhead" fill="#000000" transform="translate(98.000000, 95.000000) rotate(-94.148848) translate(-98.000000, -95.000000) " points="106 103 90 95 106 87"></polygon>
            </g>
            <g transform="translate(122.331880, 85.874058) rotate(-70.000000) translate(-122.331880, -85.874058) translate(49.331880, 35.374058)">
                <path d="M0.479198838,15.3520115 C80.5272276,-19.2202613 126.034161,6.32906822 137,92" id="Line" stroke="#000000" stroke-width="5" stroke-linecap="square"></path>
                <polygon id="Arrowhead" fill="#000000" transform="translate(137.000000, 92.000000) rotate(-94.148848) translate(-137.000000, -92.000000) " points="145 100 129 92 145 84"></polygon>
            </g>
            <g transform="translate(93.751685, 296.602896) rotate(-44.000000) translate(-93.751685, -296.602896) translate(32.251685, 226.102896)">
                <path d="M11.3808958,41.5974436 C74.4172941,18.9381675 107.768827,44.6085294 111.435493,118.608529" id="Line" stroke="#000000" stroke-width="5" stroke-linecap="square" transform="translate(61.408195, 76.119074) rotate(242.000000) translate(-61.408195, -76.119074) "></path>
                <polygon id="Arrowhead" fill="#000000" transform="translate(75.437763, 12.000000) rotate(147.851152) translate(-75.437763, -12.000000) " points="83.4377627 20 67.4377627 12 83.4377627 4"></polygon>
            </g>
        </g>
        <text id="Low-Trust.-Low-Safet" opacity="0.5" font-family="HiraginoSans-W3, Hiragino Sans" font-size="15" font-weight="300" fill="#000000">
            <tspan x="364.205" y="68">Low Trust. </tspan>
            <tspan x="359.2625" y="83">Low Safety.</tspan>
        </text>
        <g id="XP-Values" transform="translate(263.000000, 117.000000)" font-size="36" font-family="HiraginoSans-W3, Hiragino Sans" fill="#4A90E2" font-weight="300">
            <text id="Respect">
                <tspan x="66.492" y="32">Respect</tspan>
            </text>
            <text id="Communication">
                <tspan x="0.126" y="154">Communication</tspan>
            </text>
            <text id="Feedback">
                <tspan x="53.136" y="214">Feedback</tspan>
            </text>
            <text id="Courage">
                <tspan x="63.306" y="93">Courage</tspan>
            </text>
        </g>
        <text id="No-authentic-communi" opacity="0.5" font-family="HiraginoSans-W3, Hiragino Sans" font-size="15" font-weight="300" fill="#000000">
            <tspan x="520.355" y="224">No authentic communication.</tspan>
            <tspan x="554.03" y="239">Issues not surfaced.</tspan>
        </text>
        <text id="Wasted-time-&amp;-effort" opacity="0.5" font-family="HiraginoSans-W3, Hiragino Sans" font-size="15" font-weight="300" fill="#000000">
            <tspan x="322.7425" y="387">Wasted time &amp; effort.</tspan>
            <tspan x="322.4125" y="402">Lack of accountabiliy.</tspan>
        </text>
        <text id="Poor-sense-of-progre" opacity="0.5" font-family="HiraginoSans-W3, Hiragino Sans" font-size="15" font-weight="300" fill="#000000">
            <tspan x="67.055" y="224">Poor sense of progress.</tspan>
            <tspan x="86.885" y="239">Folks checked out.</tspan>
        </text>
    </g>
</svg>